<mxfile host="app.diagrams.net" modified="2023-06-03T03:53:25.515Z" agent="Mozilla/5.0 (Windows NT 10.0; Win64; x64) AppleWebKit/537.36 (KHTML, like Gecko) Chrome/113.0.0.0 Safari/537.36" etag="B6HzwEsrVwPVabVqF_tO" version="21.3.7" type="github">
  <diagram id="C5RBs43oDa-KdzZeNtuy" name="Page-1">
    <mxGraphModel dx="1434" dy="756" grid="1" gridSize="10" guides="1" tooltips="1" connect="1" arrows="1" fold="1" page="1" pageScale="1" pageWidth="827" pageHeight="1169" math="0" shadow="0">
      <root>
        <mxCell id="WIyWlLk6GJQsqaUBKTNV-0" />
        <mxCell id="WIyWlLk6GJQsqaUBKTNV-1" parent="WIyWlLk6GJQsqaUBKTNV-0" />
        <mxCell id="eu6iZmVDXHD_G9yCicwP-2" style="edgeStyle=orthogonalEdgeStyle;rounded=0;orthogonalLoop=1;jettySize=auto;html=1;exitX=1;exitY=0.5;exitDx=0;exitDy=0;entryX=0;entryY=0.5;entryDx=0;entryDy=0;" edge="1" parent="WIyWlLk6GJQsqaUBKTNV-1" source="eu6iZmVDXHD_G9yCicwP-0" target="eu6iZmVDXHD_G9yCicwP-1">
          <mxGeometry relative="1" as="geometry" />
        </mxCell>
        <mxCell id="eu6iZmVDXHD_G9yCicwP-0" value="Orger vs Troll" style="rounded=0;whiteSpace=wrap;html=1;" vertex="1" parent="WIyWlLk6GJQsqaUBKTNV-1">
          <mxGeometry x="40" y="60" width="120" height="40" as="geometry" />
        </mxCell>
        <mxCell id="eu6iZmVDXHD_G9yCicwP-5" style="edgeStyle=orthogonalEdgeStyle;rounded=0;orthogonalLoop=1;jettySize=auto;html=1;exitX=1;exitY=0.5;exitDx=0;exitDy=0;entryX=0;entryY=0.5;entryDx=0;entryDy=0;" edge="1" parent="WIyWlLk6GJQsqaUBKTNV-1" source="eu6iZmVDXHD_G9yCicwP-1" target="eu6iZmVDXHD_G9yCicwP-3">
          <mxGeometry relative="1" as="geometry" />
        </mxCell>
        <mxCell id="eu6iZmVDXHD_G9yCicwP-6" style="edgeStyle=orthogonalEdgeStyle;rounded=0;orthogonalLoop=1;jettySize=auto;html=1;exitX=1;exitY=0.5;exitDx=0;exitDy=0;entryX=0;entryY=0.5;entryDx=0;entryDy=0;" edge="1" parent="WIyWlLk6GJQsqaUBKTNV-1" source="eu6iZmVDXHD_G9yCicwP-1" target="eu6iZmVDXHD_G9yCicwP-4">
          <mxGeometry relative="1" as="geometry" />
        </mxCell>
        <mxCell id="eu6iZmVDXHD_G9yCicwP-8" style="edgeStyle=orthogonalEdgeStyle;rounded=0;orthogonalLoop=1;jettySize=auto;html=1;exitX=1;exitY=0.5;exitDx=0;exitDy=0;entryX=0;entryY=0.5;entryDx=0;entryDy=0;" edge="1" parent="WIyWlLk6GJQsqaUBKTNV-1" source="eu6iZmVDXHD_G9yCicwP-1" target="eu6iZmVDXHD_G9yCicwP-7">
          <mxGeometry relative="1" as="geometry" />
        </mxCell>
        <mxCell id="eu6iZmVDXHD_G9yCicwP-1" value="Login Server" style="rounded=0;whiteSpace=wrap;html=1;" vertex="1" parent="WIyWlLk6GJQsqaUBKTNV-1">
          <mxGeometry x="480" y="40" width="120" height="80" as="geometry" />
        </mxCell>
        <mxCell id="eu6iZmVDXHD_G9yCicwP-3" value="회원가입" style="rounded=0;whiteSpace=wrap;html=1;" vertex="1" parent="WIyWlLk6GJQsqaUBKTNV-1">
          <mxGeometry x="640" y="40" width="120" height="40" as="geometry" />
        </mxCell>
        <mxCell id="eu6iZmVDXHD_G9yCicwP-4" value="로그인" style="rounded=0;whiteSpace=wrap;html=1;" vertex="1" parent="WIyWlLk6GJQsqaUBKTNV-1">
          <mxGeometry x="640" y="90" width="120" height="40" as="geometry" />
        </mxCell>
        <mxCell id="eu6iZmVDXHD_G9yCicwP-7" value="계정 찾기" style="rounded=0;whiteSpace=wrap;html=1;" vertex="1" parent="WIyWlLk6GJQsqaUBKTNV-1">
          <mxGeometry x="640" y="140" width="120" height="40" as="geometry" />
        </mxCell>
      </root>
    </mxGraphModel>
  </diagram>
</mxfile>
